<?xml version="1.0" encoding="UTF-8"?>
<svg id="Layer_2" xmlns="http://www.w3.org/2000/svg" xmlns:xlink="http://www.w3.org/1999/xlink" viewBox="0 0 603.07 109.36">
  <defs>
    <style>
      .cls-1 {
        fill: url(#linear-gradient-5);
      }

      .cls-2 {
        fill: url(#linear-gradient-4);
      }

      .cls-3 {
        fill: url(#linear-gradient-3);
      }

      .cls-4 {
        fill: url(#linear-gradient-2);
      }

      .cls-5 {
        fill: url(#linear-gradient);
      }

      .cls-6 {
        fill: #fff;
      }
    </style>
    <linearGradient id="linear-gradient" x1="25.3" y1="109.35" x2="25.3" y2="2.16" gradientUnits="userSpaceOnUse">
      <stop offset="0" stop-color="#f7931e"/>
      <stop offset="1" stop-color="#845eb1"/>
    </linearGradient>
    <linearGradient id="linear-gradient-2" x1="83.47" y1="109.35" x2="83.47" y2="2.16" xlink:href="#linear-gradient"/>
    <linearGradient id="linear-gradient-3" x1="46.96" y1="109.36" x2="46.96" y2="2.18" xlink:href="#linear-gradient"/>
    <linearGradient id="linear-gradient-4" x1="54.36" y1="109.35" x2="54.36" y2="2.16" xlink:href="#linear-gradient"/>
    <linearGradient id="linear-gradient-5" x1="40.55" y1="109.35" x2="40.55" y2="35.43" xlink:href="#linear-gradient"/>
  </defs>
  <g id="Layer_1-2" data-name="Layer_1">
    <g>
      <g>
        <polygon class="cls-6" points="164.39 58.41 138.02 12.98 120.83 12.98 120.83 93.14 134.65 93.14 134.65 33.08 160.33 77.69 168.23 77.69 194.02 33.08 194.02 93.14 207.84 93.14 207.84 12.98 190.76 12.98 164.39 58.41"/>
        <path class="cls-6" d="M272.2,75.13v-41.24h-13.01v33.69c0,8.6-5.93,14.41-14.75,14.41-8.36,0-13.82-5.69-13.82-14.17v-33.92h-13.01v37.76c0,13.82,9.06,22.89,22.65,22.89,8.6,0,15.45-3.49,19.98-9.99,1.98,5.58,6.97,8.6,14.75,8.6h3.83v-12.55h-1.16c-3.37,0-5.46-2.09-5.46-5.46Z"/>
        <path class="cls-6" d="M339,75.13v-19.28c0-14.06-9.41-23.35-23.47-23.35-8.36,0-15.22,3.14-19.98,8.95v-7.55h-13.01v59.25h13.01v-32.76c0-9.18,6.27-15.33,15.68-15.33s14.75,6.04,14.75,15.1v17.89c0,9.88,5.46,15.1,15.8,15.1h3.72v-12.55h-1.16c-3.37,0-5.34-2.09-5.34-5.46Z"/>
        <path class="cls-6" d="M376.99,45.05c7.78,0,14.17,4.53,16.26,11.15h13.82c-2.44-13.94-14.64-23.7-30.09-23.7-18.12,0-31.71,13.36-31.71,31.02s13.59,31.02,31.71,31.02c15.45,0,27.65-9.76,30.09-23.7h-13.82c-2.09,6.62-8.48,11.15-16.26,11.15-10.46,0-18.36-8.02-18.36-18.47s7.9-18.47,18.36-18.47Z"/>
        <path class="cls-6" d="M469.59,75.13v-19.28c0-14.06-9.41-23.35-23.47-23.35-8.36,0-15.22,3.25-19.98,9.29V9.5h-13.01v83.65h13.01v-32.76c0-9.18,6.27-15.33,15.68-15.33s14.75,6.04,14.75,15.1v17.89c0,9.88,5.46,15.1,15.8,15.1h3.72v-12.55h-1.16c-3.37,0-5.34-2.09-5.34-5.46Z"/>
        <polygon class="cls-6" points="479.93 93.14 493.75 93.14 493.75 60.15 525.58 60.15 525.58 47.14 493.75 47.14 493.75 25.99 530.35 25.99 530.35 12.98 479.93 12.98 479.93 93.14"/>
        <path class="cls-6" d="M542.66,7.87c-4.65,0-8.25,3.49-8.25,8.25s3.6,8.25,8.25,8.25,8.37-3.6,8.37-8.25-3.6-8.25-8.37-8.25Z"/>
        <rect class="cls-6" x="536.16" y="33.89" width="13.01" height="59.25"/>
        <path class="cls-6" d="M591.45,73.74c0,4.65-2.67,7.44-6.74,7.44s-6.74-2.56-6.74-6.51v-28.93h19.4v-11.85h-19.4v-16.03h-12.31v11.39c0,3.02-1.63,4.65-4.65,4.65h-6.04v11.85h9.99v30.2c0,10.34,7.55,17.19,18.82,17.19,11.85,0,19.28-7.55,19.28-19.4h-11.62Z"/>
      </g>
      <g>
        <path class="cls-5" d="M50.61.01c-1.4.87-2.73,1.81-4,2.84-2.29,1.9-4.35,4.09-6.06,6.54-.15.21-.29.41-.41.62h-11.19c-4.69,0-7.38.9-7.61.98-3.34,1.48-9.2,5.06-10.83,12.35-1.22,5.5.29,11.89,4.54,19.03.35.59.73,1.19,1.13,1.82l4.51,5.97c-3.82,2-7.86,5.59-9.25,6.86.18-.19.35-.37.53-.53h0s-3.45-4.45-3.45-4.45c-3.57-5.36-14.43-24.08-4.34-39.68l.09-.15c.26-.44,6.56-11.07,22.37-11.83,3.16-.15,5.86-.25,8.19-.31-.03-.01-.04-.03-.07-.04.56,0,1.07-.01,1.57-.01h1.79c1.37-.01,2.57-.01,3.6,0h8.88Z"/>
        <path class="cls-4" d="M81.93,56.48h0c.18.18.35.35.53.54-1.38-1.28-5.42-4.87-9.25-6.86l4.51-5.97c.4-.63.78-1.23,1.13-1.82,4.25-7.14,5.76-13.54,4.54-19.03-1.44-6.44-6.17-9.98-9.57-11.74.01-.28.01-.56.01-.84,0-.71-.01-1.43-.04-2.13v-.06c-.07-1.37-.21-2.54-.31-3.45l-.47-3.95c11.61,2.62,16.37,10.67,16.61,11.05l.09.15c10.1,15.61-.76,34.32-4.34,39.68l-3.45,4.44Z"/>
        <path class="cls-3" d="M89.88,72.93c0,17.73-14.91,32.5-34.66,35.76-2.67.44-5.44.68-8.26.68s-5.6-.24-8.27-.68c-19.76-3.26-34.66-18.03-34.66-35.76,0-8.35,3.3-16.04,8.86-22.16l.24-.26c.07-.04.13-.12.21-.21,1.26-1.28,4.93-4.87,8.4-6.86h.01c3.82-2.37,8.11-4.19,12.73-5.38.04-.01.08-.01.12-.03,2.9-.73,5.85.35,8.16,2.43.95.84,2.03,1.31,3.17,1.31s2.11-.43,3.02-1.19c2.95-2.48,6.76-3.45,10.38-2.53.03,0,.04.01.07.01,4.82,1.23,9.27,3.16,13.21,5.67h.01c3.94,2.56,6.88,5.42,8.78,7.54,1.1,1.23,1.84,2.22,2.22,2.75.05.09.12.16.17.25.04.04.07.09.09.13h.01c3.78,5.44,5.96,11.77,5.96,18.53Z"/>
        <path class="cls-2" d="M49.6,15.69c-.45.64-.84,1.31-1.21,1.99-2.86,5.41-2.75,11.29-2.13,15.27.06.44.13.85.21,1.24,4.3-1.49,7.78-3.65,10.4-6.46.84-.91,1.62-1.91,2.29-2.96,1.53-2.4,2.59-5.18,3.17-8.26.43-2.32.57-4.83.46-7.42-.05-.99-.14-1.89-.24-2.71-1.23.46-2.39.97-3.47,1.51-4.1,2.01-7.29,4.64-9.48,7.79Z"/>
        <polygon class="cls-1" points="40.55 9.39 40.55 9.38 40.56 9.38 40.55 9.39"/>
      </g>
    </g>
  </g>
</svg>